<svg xmlns="http://www.w3.org/2000/svg" width="33" height="30.25" viewBox="0 0 33 30.25">
  <path id="envelope_5_" data-name="envelope (5)" d="M26.125,1H6.875A6.883,6.883,0,0,0,0,7.875v16.5A6.883,6.883,0,0,0,6.875,31.25h19.25A6.883,6.883,0,0,0,33,24.375V7.875A6.883,6.883,0,0,0,26.125,1ZM6.875,3.75h19.25a4.125,4.125,0,0,1,3.823,2.595L19.418,16.876a4.135,4.135,0,0,1-5.835,0L3.052,6.345A4.125,4.125,0,0,1,6.875,3.75ZM26.125,28.5H6.875A4.125,4.125,0,0,1,2.75,24.375V9.938l8.888,8.882a6.885,6.885,0,0,0,9.724,0L30.25,9.938V24.375A4.125,4.125,0,0,1,26.125,28.5Z" transform="translate(0 -1)" fill="#23407f"/>
</svg>
