<svg id="Group_49" data-name="Group 49" xmlns="http://www.w3.org/2000/svg" xmlns:xlink="http://www.w3.org/1999/xlink" width="154.699" height="38.044" viewBox="0 0 154.699 38.044">
  <defs>
    <clipPath id="clip-path">
      <rect id="Rectangle_115" data-name="Rectangle 115" width="154.699" height="38.044" fill="none"/>
    </clipPath>
  </defs>
  <g id="Group_48" data-name="Group 48" clip-path="url(#clip-path)">
    <path id="Path_7" data-name="Path 7" d="M36.075,75.634l1.5,1.764S26,85.539,16.852,89.28C10.2,92,4.47,92.008,4.363,89.139a5.128,5.128,0,0,1,1.105-3.794c-3.789,3.49-3.572,8.332-.1,9.439,3.587,1.144,9.5.508,19.466-4.556A89.586,89.586,0,0,0,40.375,80.5l1.4,1.72,2.776-7.766Z" transform="translate(-2.114 -58.389)" fill="#d6a014"/>
    <path id="Path_8" data-name="Path 8" d="M105.949,19.478l-.137-2.2-.92-1.08.846-.118L105,4.185,96.158,2.168h10.971V15.884l2.153-.3V.015H94V26.667c4.7-2.5,9.268-5.414,11.944-7.189" transform="translate(-73.72 -0.012)" fill="#03316c"/>
    <path id="Path_9" data-name="Path 9" d="M30.522,51.952c.275-.112.556-.236.835-.356L30.14,32.088l-7.494-1.71h9.3V51.341c.6-.268,1.212-.556,1.826-.853V28.551H20.82V53.692c1.66.472,5.3.061,9.7-1.739" transform="translate(-16.327 -22.39)" fill="#03316c"/>
    <path id="Path_10" data-name="Path 10" d="M0,119.9a3.386,3.386,0,0,0,1.446,2.159,6.412,6.412,0,0,0,2.437,1.012,15.616,15.616,0,0,0,5.3.143,44.064,44.064,0,0,0,10.191-3.147,79.98,79.98,0,0,0,9.533-4.87,77.217,77.217,0,0,0,8.817-6.093,66.153,66.153,0,0,1-8.674,6.329,75.731,75.731,0,0,1-9.536,4.964,42.936,42.936,0,0,1-10.3,3.09,15.748,15.748,0,0,1-5.376-.246,6.536,6.536,0,0,1-2.449-1.113A3.429,3.429,0,0,1,0,119.9" transform="translate(0 -85.558)" fill="#03316c"/>
    <path id="Path_11" data-name="Path 11" d="M235.317,160.7h-2.057l-.394.887h-.479l1.65-3.686h.511l1.643,3.686h-.479Zm-1.028-2.329-.893,2.019h1.785Z" transform="translate(-182.241 -123.831)" fill="#d6a014"/>
    <path id="Path_12" data-name="Path 12" d="M255.668,157.681h.453v2.351c0,.775.492,1.09,1.2,1.09s1.184-.315,1.184-1.09v-2.351h.453v2.346c0,.988-.725,1.427-1.643,1.427s-1.643-.438-1.643-1.427Z" transform="translate(-200.498 -123.656)" fill="#d6a014"/>
    <path id="Path_13" data-name="Path 13" d="M281.693,159.557c0,1.159-.886,1.859-2.393,1.859H277.96v-3.735H279.3c1.507,0,2.393.705,2.393,1.876m-2.393,1.549c1.28,0,1.934-.588,1.934-1.549s-.653-1.566-1.934-1.566h-.886v3.115Z" transform="translate(-217.98 -123.656)" fill="#d6a014"/>
    <rect id="Rectangle_113" data-name="Rectangle 113" width="0.453" height="3.735" transform="translate(65.062 34.026)" fill="#d6a014"/>
    <path id="Path_14" data-name="Path 14" d="M309.269,157.681h2.969v.31h-1.255v3.425h-.453v-3.425h-1.262Z" transform="translate(-242.532 -123.656)" fill="#d6a014"/>
    <path id="Path_15" data-name="Path 15" d="M340.842,160.7h-2.057l-.394.887h-.479l1.649-3.686h.511l1.643,3.686h-.479Zm-1.029-2.329-.892,2.019h1.785Z" transform="translate(-264.995 -123.831)" fill="#d6a014"/>
    <path id="Path_16" data-name="Path 16" d="M362.536,157.483a2.127,2.127,0,0,1,2.083,1.133h-.531a1.616,1.616,0,0,0-1.552-.807,1.587,1.587,0,1,0,0,3.157,1.629,1.629,0,0,0,1.552-.8h.531a2.137,2.137,0,0,1-2.083,1.122,1.926,1.926,0,1,1,0-3.81" transform="translate(-282.571 -123.5)" fill="#d6a014"/>
    <path id="Path_17" data-name="Path 17" d="M388.033,157.483a2.127,2.127,0,0,1,2.083,1.133h-.53a1.617,1.617,0,0,0-1.553-.807,1.587,1.587,0,1,0,0,3.157,1.63,1.63,0,0,0,1.553-.8h.53a2.137,2.137,0,0,1-2.083,1.122,1.926,1.926,0,1,1,0-3.81" transform="translate(-302.566 -123.5)" fill="#d6a014"/>
    <path id="Path_18" data-name="Path 18" d="M413.557,161.3a1.932,1.932,0,1,1,2.238-1.907,2.029,2.029,0,0,1-2.238,1.907m0-.326a1.589,1.589,0,1,0-1.772-1.581,1.608,1.608,0,0,0,1.772,1.581" transform="translate(-322.562 -123.5)" fill="#d6a014"/>
    <path id="Path_19" data-name="Path 19" d="M438.193,157.681h.453v2.351c0,.775.492,1.09,1.2,1.09s1.184-.315,1.184-1.09v-2.351h.453v2.346c0,.988-.725,1.427-1.643,1.427s-1.643-.438-1.643-1.427Z" transform="translate(-343.637 -123.656)" fill="#d6a014"/>
    <path id="Path_20" data-name="Path 20" d="M463.893,157.681v3.735h-.453l-2.5-3.141v3.141h-.453v-3.735h.453l2.5,3.136v-3.136Z" transform="translate(-361.117 -123.656)" fill="#d6a014"/>
    <path id="Path_21" data-name="Path 21" d="M481.937,157.681h2.969v.31h-1.255v3.425H483.2v-3.425h-1.261Z" transform="translate(-377.941 -123.656)" fill="#d6a014"/>
    <path id="Path_22" data-name="Path 22" d="M502.219,161.3c-.905,0-1.5-.427-1.527-1h.479c.038.31.317.684,1.048.684.628,0,1-.3,1-.689,0-1.1-2.484-.406-2.484-1.811,0-.577.576-1,1.449-1s1.378.4,1.456.908h-.492c-.052-.262-.356-.582-.983-.588-.531-.005-.971.235-.971.668,0,1.08,2.484.417,2.484,1.806,0,.508-.5,1.021-1.455,1.021" transform="translate(-392.649 -123.5)" fill="#d6a014"/>
    <path id="Path_23" data-name="Path 23" d="M532.719,158.236c.006-.337-.291-.518-.64-.518-.4,0-.666.2-.666.486,0,.24.162.438.472.71l1.488,1.245c.084-.1.162-.2.246-.32l.414-.572h.485l-.492.7a5.489,5.489,0,0,1-.349.449l.944.785h-.589l-.615-.518a2.171,2.171,0,0,1-1.553.582c-.912,0-1.539-.449-1.539-1.132,0-.523.368-.924,1.067-1.149a1.018,1.018,0,0,1-.433-.775c0-.47.446-.8,1.139-.8.647,0,1.1.337,1.074.828Zm.4,2.2-1.443-1.207c-.615.187-.9.486-.9.9,0,.47.446.818,1.087.818a1.689,1.689,0,0,0,1.255-.508" transform="translate(-415.888 -123.441)" fill="#d6a014"/>
    <path id="Path_24" data-name="Path 24" d="M564.6,157.681h2.969v.31h-1.255v3.425h-.453v-3.425H564.6Z" transform="translate(-442.765 -123.656)" fill="#d6a014"/>
    <path id="Path_25" data-name="Path 25" d="M585.567,160.7H583.51l-.394.887h-.479l1.649-3.686h.511l1.643,3.686h-.479Zm-1.029-2.329-.893,2.019h1.785Z" transform="translate(-456.912 -123.831)" fill="#d6a014"/>
    <path id="Path_26" data-name="Path 26" d="M606.434,159.855l-1.093,1.56h-.5l1.365-1.881-1.365-1.854h.5l1.145,1.555,1.106-1.555h.5l-1.378,1.87,1.371,1.865h-.5Z" transform="translate(-474.321 -123.655)" fill="#d6a014"/>
    <path id="Path_27" data-name="Path 27" d="M627.422,160.7h-2.057l-.394.887h-.479l1.65-3.686h.511l1.643,3.686h-.479Zm-1.029-2.329-.893,2.019h1.785Z" transform="translate(-489.734 -123.831)" fill="#d6a014"/>
    <path id="Path_28" data-name="Path 28" d="M646.363,157.681h2.969v.31h-1.255v3.425h-.453v-3.425h-1.261Z" transform="translate(-506.886 -123.656)" fill="#d6a014"/>
    <rect id="Rectangle_114" data-name="Rectangle 114" width="0.453" height="3.735" transform="translate(143.679 34.026)" fill="#d6a014"/>
    <path id="Path_29" data-name="Path 29" d="M676.378,161.3a1.932,1.932,0,1,1,2.238-1.907,2.029,2.029,0,0,1-2.238,1.907m0-.326a1.589,1.589,0,1,0-1.772-1.581,1.607,1.607,0,0,0,1.772,1.581" transform="translate(-528.669 -123.5)" fill="#d6a014"/>
    <path id="Path_30" data-name="Path 30" d="M704.513,157.681v3.735h-.453l-2.5-3.141v3.141H701.1v-3.735h.453l2.5,3.136v-3.136Z" transform="translate(-549.815 -123.656)" fill="#d6a014"/>
    <path id="Path_31" data-name="Path 31" d="M242.218,17.755V31.349h-9.831V0h9.831v13.2L251.206,0h11.113l-10.8,15.011,11.513,16.338H251.338Z" transform="translate(-182.241 0.001)" fill="#03316c"/>
    <path id="Path_32" data-name="Path 32" d="M406.508,19.129h-9.343V31.35h-9.829V0h9.829V11.292h9.343V0h9.831V31.35h-9.831Z" transform="translate(-303.754 0)" fill="#03316c"/>
    <path id="Path_33" data-name="Path 33" d="M542.285,0h12.043l6.908,18.819L567.967,0h12v31.35h-9.785V15.719l-4.827,15.63h-8.413l-4.826-15.63v15.63h-9.83Z" transform="translate(-425.267 0)" fill="#03316c"/>
  </g>
</svg>
