<svg xmlns="http://www.w3.org/2000/svg" width="33" height="33" viewBox="0 0 33 33">
  <path id="phone-call_1_" data-name="phone-call (1)" d="M17.889,1.378A1.377,1.377,0,0,1,19.267,0,13.788,13.788,0,0,1,33.039,13.773a1.377,1.377,0,1,1-2.754,0A11.03,11.03,0,0,0,19.267,2.755a1.377,1.377,0,0,1-1.377-1.377Zm1.377,6.886a5.509,5.509,0,0,1,5.509,5.509,1.377,1.377,0,1,0,2.754,0A8.272,8.272,0,0,0,19.267,5.51a1.377,1.377,0,0,0,0,2.754ZM31.79,23.054a4.269,4.269,0,0,1,0,6.03l-1.253,1.445c-11.28,10.8-38.728-16.643-28.1-27.958L4.025,1.193a4.243,4.243,0,0,1,5.959.055c.043.043,2.595,3.358,2.595,3.358a4.269,4.269,0,0,1-.01,5.9l-1.595,2.005a17.6,17.6,0,0,0,9.546,9.565l2.018-1.6a4.269,4.269,0,0,1,5.9-.008S31.747,23.012,31.79,23.054Zm-1.9,2s-3.3-2.536-3.338-2.578a1.515,1.515,0,0,0-2.133,0c-.037.039-2.815,2.252-2.815,2.252a1.377,1.377,0,0,1-1.348.209A20.671,20.671,0,0,1,8.111,12.809a1.377,1.377,0,0,1,.2-1.377s2.213-2.779,2.25-2.815a1.515,1.515,0,0,0,0-2.133c-.043-.041-2.578-3.34-2.578-3.34A1.515,1.515,0,0,0,5.9,3.2L4.319,4.574c-7.77,9.343,16.016,31.81,24.2,24.073L29.778,27.2a1.544,1.544,0,0,0,.117-2.144Z" transform="translate(-0.039 0.002)" fill="#23407f"/>
</svg>
